HIERARCHY
ROOT Hips
{
	OFFSET 0.000000 0.000000 0.000000 
	CHANNELS 6 Xposition Yposition Zposition Zrotation Yrotation Xrotation
	JOINT LeftUpLeg
	{
		OFFSET 1.363060 -1.794630 0.839290 
		CHANNELS 3 Zrotation Yrotation Xrotation
		JOINT LeftLeg
		{
			OFFSET 2.448110 -6.726130 0.000000 
			CHANNELS 3 Zrotation Yrotation Xrotation
			JOINT LeftFoot
			{
				OFFSET 2.562200 -7.039590 0.000000 
				CHANNELS 3 Zrotation Yrotation Xrotation
				JOINT LeftToeBase
				{
					OFFSET 0.157640 -0.433110 2.322550 
					CHANNELS 3 Zrotation Yrotation Xrotation
					End Site
					{
						OFFSET 0.000000 0.000000 0.000000 
					}
				}
			}
		}
	}
	JOINT RightUpLeg
	{
		OFFSET -1.305520 -1.794630 0.839290 
		CHANNELS 3 Zrotation Yrotation Xrotation
		JOINT RightLeg
		{
			OFFSET -2.542530 -6.985550 0.000000 
			CHANNELS 3 Zrotation Yrotation Xrotation
			JOINT RightFoot
			{
				OFFSET -2.568260 -7.056230 0.000000 
				CHANNELS 3 Zrotation Yrotation Xrotation
				JOINT RightToeBase
				{
					OFFSET -0.164730 -0.452590 2.363150 
					CHANNELS 3 Zrotation Yrotation Xrotation
					End Site
					{
						OFFSET 0.000000 0.000000 0.000000 
					}
				}
			}
		}
	}
	JOINT Spine
	{
		OFFSET 0.028270 2.035590 -0.193380 
		CHANNELS 3 Zrotation Yrotation Xrotation
		JOINT Spine1
		{
			OFFSET 0.056720 2.048850 -0.042750 
			CHANNELS 3 Zrotation Yrotation Xrotation
			JOINT Neck1
			{
				OFFSET -0.054170 1.746240 0.172020 
				CHANNELS 3 Zrotation Yrotation Xrotation
				JOINT Head
				{
					OFFSET 0.104070 1.761360 -0.123970 
					CHANNELS 3 Zrotation Yrotation Xrotation
					End Site
					{
						OFFSET 0.000000 0.000000 0.000000 
					}
				}
			}
			JOINT LeftArm
			{
				OFFSET 3.362410 1.200890 -0.311210 
				CHANNELS 3 Zrotation Yrotation Xrotation
				JOINT LeftForeArm
				{
					OFFSET 4.983000 -0.000000 -0.000000 
					CHANNELS 3 Zrotation Yrotation Xrotation
					JOINT LeftHand
					{
						OFFSET 3.483560 -0.000000 -0.000000 
						CHANNELS 3 Zrotation Yrotation Xrotation
						JOINT LeftHandIndex1
						{
							OFFSET 0.715260 -0.000000 -0.000000 
							CHANNELS 3 Zrotation Yrotation Xrotation
							End Site
							{
								OFFSET 0.000000 0.000000 0.000000 
							}
						}
					}
				}
			}
			JOINT RightArm
			{
				OFFSET -3.136600 1.374050 -0.404650 
				CHANNELS 3 Zrotation Yrotation Xrotation
				JOINT RightForeArm
				{
					OFFSET -5.241900 -0.000000 -0.000000 
					CHANNELS 3 Zrotation Yrotation Xrotation
					JOINT RightHand
					{
						OFFSET -3.444170 -0.000000 -0.000000 
						CHANNELS 3 Zrotation Yrotation Xrotation
						JOINT RightHandIndex1
						{
							OFFSET -0.622530 -0.000000 -0.000000 
							CHANNELS 3 Zrotation Yrotation Xrotation
							End Site
							{
								OFFSET 0.000000 0.000000 0.000000 
							}
						}
					}
				}
			}
		}
	}
}
MOTION
Frames: 9
Frame Time: 0.041667
8.456563 17.946458 44.235211 178.263797 -1.818338 -141.975570 -29.260966 -9.209999 -39.674430 7.367968 16.492082 49.859844 0.511857 0.729841 -14.242463 1.680400 -8.166100 -23.219600 14.043843 23.980284 -60.952272 -19.624118 -20.485179 90.231415 -0.208855 -4.552588 -10.593003 0.000000 0.000000 0.000000 -0.759287 3.758850 -4.717951 -1.779433 1.795218 -10.430975 6.849126 -8.625562 0.057462 1.633700 -4.285000 0.765400 77.832856 -9.330999 -51.526101 32.042354 -47.119743 -13.433092 -0.840977 4.577297 -51.526898 -7.125000 0.000000 0.000000 -30.830945 26.159311 -30.229894 -27.694130 40.382353 -5.985309 -0.973531 0.659324 -5.054291 7.125000 0.000000 0.000000 
8.454958 17.775270 43.475244 177.590371 -2.816630 -141.638613 -29.943874 -9.729098 -42.837103 6.939203 16.219322 48.251907 0.664718 0.541749 -16.672591 1.446200 -7.602300 -21.512500 11.643601 23.520134 -65.946179 -18.450352 -20.319022 86.902878 -0.297281 -3.470285 -12.425626 0.000000 0.000000 0.000000 -0.143556 3.167079 -4.106026 -0.611732 1.455217 -9.562227 7.468422 -8.247849 -0.969837 2.009400 -4.113300 0.609900 74.884902 -7.831619 -49.126812 34.762490 -49.335956 -15.236893 -0.993231 4.606536 -52.020308 -7.125000 0.000000 0.000000 -31.483126 29.133841 -34.123482 -27.615689 40.130872 -5.979712 -1.077759 0.721249 -5.916455 7.125000 0.000000 0.000000 
8.438909 17.552084 42.695485 177.070856 -3.394909 -141.643615 -31.089931 -9.913141 -44.963995 6.477732 15.856542 46.442546 0.741735 2.035013 -17.677108 1.608700 -7.998500 -22.709500 9.945796 22.892948 -70.174692 -16.966259 -20.072900 82.541740 -0.430186 -2.812926 -15.047939 0.000000 0.000000 0.000000 0.310189 3.081206 -3.740028 -0.042244 1.337183 -9.855014 7.784808 -8.136511 -1.882264 2.267300 -4.081200 0.383600 71.874346 -8.642654 -48.023528 37.597393 -51.141893 -17.014872 -1.021289 4.630370 -51.403517 -7.125000 0.000000 0.000000 -30.996150 31.259849 -35.955500 -27.924015 40.300668 -6.158711 -1.191829 0.667474 -7.601738 7.125000 0.000000 0.000000 
8.454851 17.264489 41.978636 176.289581 -4.882996 -140.195016 -30.794873 -12.873298 -49.584041 6.796269 16.292999 48.011981 0.772991 3.635224 -18.392927 1.869000 -8.587600 -24.513600 8.104055 21.575501 -76.410633 -15.587250 -19.782376 78.407559 -0.708601 -2.343878 -19.234985 0.000000 0.000000 0.000000 0.829175 2.841330 -3.674427 0.788464 1.200131 -10.435045 7.603947 -8.045365 -2.490758 2.245800 -4.045900 0.314600 69.136306 -9.587590 -46.990882 40.062006 -52.572794 -18.570101 -1.042707 4.620777 -51.032870 -7.125000 0.000000 0.000000 -30.527273 32.706461 -36.724173 -28.348075 40.697038 -6.436346 -1.289284 0.550629 -9.730609 7.125000 0.000000 0.000000 
8.453567 16.924253 41.185075 176.415976 -5.048120 -140.110209 -30.961675 -13.371987 -51.879295 7.065079 16.606322 49.206062 0.735271 4.542594 -18.174114 2.165700 -9.202900 -26.432200 7.879263 21.456603 -80.340910 -14.137164 -19.340250 73.841760 -0.996674 -1.837958 -22.316705 -0.553300 4.765000 -13.239500 1.235590 3.189592 -3.353715 1.409026 1.281923 -10.601914 7.297198 -7.873739 -2.969511 2.118900 -3.974100 0.233900 66.974250 -10.335832 -45.758245 41.712768 -53.488750 -19.604420 -1.064186 4.618978 -51.113946 -7.125000 0.000000 0.000000 -30.089101 34.161109 -37.170376 -28.538433 40.817094 -6.576837 -1.373322 0.487081 -11.114895 7.125000 0.000000 0.000000 
8.442440 16.501848 40.367119 176.862597 -4.483832 -139.763024 -31.211698 -13.550786 -54.060398 7.472227 17.003810 50.864181 0.719362 3.789501 -17.822814 0.278000 -3.391200 -9.369900 8.158561 21.902030 -84.683849 -13.084284 -18.921354 70.417319 -1.091961 -3.193127 -23.540475 -0.533800 4.681600 -13.002500 1.558637 3.849532 -2.981550 2.062584 1.507470 -10.156379 7.100594 -7.798635 -3.436917 2.068900 -3.949500 0.117200 65.455830 -10.730751 -44.335760 42.472732 -53.916188 -20.031622 -1.116694 4.665216 -51.577977 -7.125000 0.000000 0.000000 -30.012614 35.338477 -36.910439 -28.216519 40.387212 -6.457901 -1.505610 0.490789 -11.934107 7.125000 0.000000 0.000000 
8.385948 16.018778 39.502621 176.982702 -3.766752 -139.756258 -32.572288 -13.019935 -54.366308 9.465986 18.584822 58.269511 1.090294 11.627853 -27.190103 1.614500 -8.012200 -22.751300 8.730464 21.904615 -88.581416 -12.376069 -18.641152 68.110657 -0.877684 -6.481230 -22.608367 -1.156000 6.826200 -19.201500 1.831002 4.179052 -2.555805 2.436721 1.527317 -9.470002 7.295658 -7.676462 -4.021798 2.319700 -3.896600 -0.064800 64.549844 -9.978582 -41.920649 42.571820 -54.162750 -20.088703 -1.243119 4.723524 -52.428771 -7.125000 0.000000 0.000000 -30.750459 37.088934 -36.995609 -27.086806 39.003908 -5.936349 -1.604971 0.589325 -11.520072 7.125000 0.000000 0.000000 
8.359521 15.556892 38.685307 175.956330 -4.042696 -139.252084 -33.608080 -14.276772 -52.385076 10.533852 19.209347 61.866056 1.162720 15.111903 -31.181962 3.090900 -10.840800 -31.744800 8.578556 20.964364 -93.264316 -12.011924 -18.568136 67.035706 -0.672290 -9.804548 -22.592263 -1.453800 7.621300 -21.569600 2.160930 3.929517 -2.294720 3.033161 1.269978 -9.394710 7.787013 -7.524387 -4.937078 2.737900 -3.840000 -0.379900 63.726596 -8.680155 -39.463159 42.762710 -54.566037 -20.270179 -1.319796 4.734694 -52.599004 -7.125000 0.000000 0.000000 -32.010261 39.343538 -38.239039 -25.471178 36.844897 -5.135883 -1.615652 0.767879 -9.459322 7.125000 0.000000 0.000000 
8.341439 15.163267 37.831080 174.498358 -4.244052 -137.988087 -35.258286 -14.639672 -48.493078 10.544168 19.194131 61.826729 1.048289 18.858634 -34.217402 3.858800 -11.970100 -35.626200 7.756490 20.064454 -98.351884 -11.716159 -18.509374 66.181933 -0.664921 -10.952627 -23.578461 -0.870600 5.949200 -16.637000 2.533277 3.743059 -2.176263 3.947085 1.067539 -9.759993 8.250378 -7.418361 -5.693932 3.133100 -3.796000 -0.542700 62.724618 -6.924066 -37.333963 43.459328 -55.294693 -20.830875 -1.310884 4.716749 -52.175261 -7.125000 0.000000 0.000000 -33.627561 41.768015 -40.676576 -23.943606 34.637681 -4.380366 -1.534895 0.954979 -6.435770 7.125000 0.000000 0.000000 
